<mxfile host="app.diagrams.net" modified="2022-05-17T14:19:56.354Z" agent="5.0 (Windows NT 10.0; Win64; x64) AppleWebKit/537.36 (KHTML, like Gecko) Chrome/101.0.4951.54 Safari/537.36" etag="zdH4y1_FX2-G3Rv2s163" version="18.0.6" type="github">
  <diagram id="f5UqFVn6lQGu6CJ9tTf1" name="Page-1">
    <mxGraphModel dx="1865" dy="571" grid="1" gridSize="10" guides="1" tooltips="1" connect="1" arrows="1" fold="1" page="1" pageScale="1" pageWidth="827" pageHeight="1169" math="0" shadow="0">
      <root>
        <mxCell id="0" />
        <mxCell id="1" parent="0" />
        <mxCell id="FSOYbMUP8HMYqavxnY61-1" value="Thủ Thư" style="shape=umlActor;verticalLabelPosition=bottom;verticalAlign=top;html=1;outlineConnect=0;" vertex="1" parent="1">
          <mxGeometry x="-50" y="210" width="30" height="60" as="geometry" />
        </mxCell>
        <mxCell id="FSOYbMUP8HMYqavxnY61-2" value="Actor" style="shape=umlActor;verticalLabelPosition=bottom;verticalAlign=top;html=1;outlineConnect=0;" vertex="1" parent="1">
          <mxGeometry x="850" y="210" width="30" height="60" as="geometry" />
        </mxCell>
        <mxCell id="FSOYbMUP8HMYqavxnY61-4" value="Nhập sách" style="ellipse;whiteSpace=wrap;html=1;" vertex="1" parent="1">
          <mxGeometry x="80" y="80" width="140" height="70" as="geometry" />
        </mxCell>
        <mxCell id="FSOYbMUP8HMYqavxnY61-5" value="Cập nhật sách" style="ellipse;whiteSpace=wrap;html=1;" vertex="1" parent="1">
          <mxGeometry x="90" y="200" width="140" height="70" as="geometry" />
        </mxCell>
        <mxCell id="FSOYbMUP8HMYqavxnY61-6" value="Xóa sách" style="ellipse;whiteSpace=wrap;html=1;" vertex="1" parent="1">
          <mxGeometry x="90" y="320" width="140" height="70" as="geometry" />
        </mxCell>
        <mxCell id="FSOYbMUP8HMYqavxnY61-7" value="" style="endArrow=none;html=1;rounded=0;" edge="1" parent="1" source="FSOYbMUP8HMYqavxnY61-1">
          <mxGeometry width="50" height="50" relative="1" as="geometry">
            <mxPoint x="50" y="190" as="sourcePoint" />
            <mxPoint x="100" y="140" as="targetPoint" />
          </mxGeometry>
        </mxCell>
        <mxCell id="FSOYbMUP8HMYqavxnY61-8" value="" style="endArrow=none;html=1;rounded=0;entryX=0;entryY=0.5;entryDx=0;entryDy=0;" edge="1" parent="1" target="FSOYbMUP8HMYqavxnY61-5">
          <mxGeometry width="50" height="50" relative="1" as="geometry">
            <mxPoint x="-20" y="238.8888888888889" as="sourcePoint" />
            <mxPoint x="100" y="150" as="targetPoint" />
          </mxGeometry>
        </mxCell>
      </root>
    </mxGraphModel>
  </diagram>
</mxfile>
